<svg id="Layer_1" data-name="Layer 1" xmlns="http://www.w3.org/2000/svg" viewBox="0 0 1029.8 755.2"><defs><style>.cls-1{fill:#3b82f6;}.cls-2{fill:#1f2937;}</style></defs><title>cse</title><rect class="cls-1" y="343.3" width="68.7" height="411.9"/><rect class="cls-1" x="34.3" y="686.5" width="274.6" height="68.7"/><rect class="cls-1" x="34.3" y="343.3" width="274.6" height="68.6"/><rect class="cls-2" x="617.9" y="343.3" width="68.7" height="411.9"/><rect class="cls-2" x="377.6" width="68.6" height="411.9"/><rect class="cls-2" x="858.2" width="68.7" height="274.6"/><rect class="cls-2" x="377.6" y="686.5" width="274.6" height="68.7"/><rect class="cls-2" x="377.6" y="343.3" width="274.6" height="68.6"/><rect class="cls-2" x="377.6" width="240.3" height="68.7"/><rect class="cls-2" x="514.9" width="377.6" height="68.7"/><rect class="cls-2" x="884.56" y="391.71" width="137.3" height="36.4" transform="translate(-35.76 631.68) rotate(-45)"/><rect class="cls-2" x="863.6" y="341.3" width="36.4" height="137.3" transform="translate(-56.71 581.2) rotate(-45)"/><rect class="cls-1" x="755.2" y="686.5" width="274.6" height="68.7"/><rect class="cls-1" x="755.2" y="514.9" width="137.3" height="68.7"/><rect class="cls-1" x="755.2" y="343.3" width="274.6" height="68.6"/></svg>